<?xml version="1.0" encoding="UTF-8" standalone="no"?>
<!-- Created with Inkscape (http://www.inkscape.org/) -->

<svg
   xmlns:dc="http://purl.org/dc/elements/1.1/"
   xmlns:cc="http://creativecommons.org/ns#"
   xmlns:rdf="http://www.w3.org/1999/02/22-rdf-syntax-ns#"
   xmlns:svg="http://www.w3.org/2000/svg"
   xmlns="http://www.w3.org/2000/svg"
   xmlns:xlink="http://www.w3.org/1999/xlink"
   xmlns:sodipodi="http://sodipodi.sourceforge.net/DTD/sodipodi-0.dtd"
   xmlns:inkscape="http://www.inkscape.org/namespaces/inkscape"
   width="952"
   height="658.40002"
   id="svg2"
   version="1.1"
   inkscape:version="0.48.4 r9939"
   sodipodi:docname="Biker At Large 2015-07-04.svg"
   style="enable-background:new">
  <defs
     id="defs4">
    <linearGradient
       inkscape:collect="always"
       id="linearGradient3769">
      <stop
         style="stop-color:#ffffff;stop-opacity:1;"
         offset="0"
         id="stop3771" />
      <stop
         style="stop-color:#ffffff;stop-opacity:0;"
         offset="1"
         id="stop3773" />
    </linearGradient>
    <linearGradient
       inkscape:collect="always"
       xlink:href="#linearGradient3769"
       id="linearGradient3775"
       x1="971.60175"
       y1="350.50055"
       x2="2280.8203"
       y2="350.50055"
       gradientUnits="userSpaceOnUse" />
  </defs>
  <sodipodi:namedview
     id="base"
     pagecolor="#ffffff"
     bordercolor="#666666"
     borderopacity="1.0"
     inkscape:pageopacity="0.0"
     inkscape:pageshadow="2"
     inkscape:zoom="0.52547675"
     inkscape:cx="702.17608"
     inkscape:cy="453.1214"
     inkscape:document-units="px"
     inkscape:current-layer="layer3"
     showgrid="false"
     inkscape:window-width="1366"
     inkscape:window-height="705"
     inkscape:window-x="-8"
     inkscape:window-y="-8"
     inkscape:window-maximized="1"
     fit-margin-top="100"
     fit-margin-left="100"
     fit-margin-right="100"
     fit-margin-bottom="100" />
  <metadata
     id="metadata7">
    <rdf:RDF>
      <cc:Work
         rdf:about="">
        <dc:format>image/svg+xml</dc:format>
        <dc:type
           rdf:resource="http://purl.org/dc/dcmitype/StillImage" />
        <dc:title></dc:title>
        <dc:description>Print A3 Landscape</dc:description>
      </cc:Work>
    </rdf:RDF>
  </metadata>
  <g
     inkscape:groupmode="layer"
     id="layer3"
     inkscape:label="Background Boxes"
     style="display:inline"
     transform="translate(-341.34392,-176.76113)">
    <rect
       style="fill:#000000;fill-opacity:1;stroke:none"
       id="rect3800"
       width="912"
       height="154"
       x="360.2442"
       y="196.76085" />
    <rect
       style="fill:#000000;fill-opacity:1;stroke:none;display:inline"
       id="rect3800-4"
       width="912"
       height="162"
       x="360.2442"
       y="653.15387" />
    <rect
       style="color:#000000;fill:none;stroke:#000000;stroke-width:10.00000286;stroke-linecap:butt;stroke-linejoin:miter;stroke-miterlimit:4;stroke-opacity:1;stroke-dasharray:none;stroke-dashoffset:0;marker:none;visibility:visible;display:inline;overflow:visible;enable-background:accumulate"
       id="rect3762"
       width="941.99994"
       height="648.39996"
       x="346.34387"
       y="181.76117" />
  </g>
  <g
     inkscape:groupmode="layer"
     id="layer2"
     inkscape:label="Text"
     style="display:inline"
     transform="translate(-341.34392,-176.76113)">
    <text
       xml:space="preserve"
       style="font-size:63.73529053px;font-style:normal;font-variant:normal;font-weight:normal;font-stretch:normal;line-height:125%;letter-spacing:0px;word-spacing:0px;fill:#000000;fill-opacity:1;stroke:#000000;stroke-width:10;stroke-miterlimit:4;stroke-opacity:1;stroke-dasharray:none;font-family:Myriad Pro;-inkscape-font-specification:Myriad Pro"
       x="493.86777"
       y="468.66861"
       id="text3002"
       sodipodi:linespacing="125%"
       transform="scale(0.7739127,1.2921354)"><tspan
         sodipodi:role="line"
         id="tspan3004"
         x="493.86777"
         y="468.66861"
         style="font-size:235.82054138px;font-weight:bold;fill:#000000;stroke:#000000;stroke-width:10;stroke-miterlimit:4;stroke-opacity:1;stroke-dasharray:none;-inkscape-font-specification:Myriad Pro Bold">ADVISORY</tspan></text>
    <g
       transform="matrix(0.84216476,0,0,1.1874161,-264.1,206)"
       style="font-size:137.62457275px;font-style:normal;font-variant:normal;font-weight:bold;font-stretch:normal;text-align:start;line-height:120.00000477%;letter-spacing:0px;word-spacing:0px;writing-mode:lr-tb;text-anchor:start;fill:#ffffff;fill-opacity:1;stroke:none;font-family:Myriad Pro;-inkscape-font-specification:Myriad Pro Bold"
       id="text3774">
      <path
         d="m 765.10117,103.4108 20.78104,0 0,-33.304721 c 0.96907,0.203601 2.05858,0.346957 3.26855,0.430071 1.2099,0.08318 2.50584,0.123319 3.88784,0.120421 6.22739,0.0058 11.90432,-0.797033 17.03082,-2.408402 5.12639,-1.611297 9.49591,-4.065568 13.10857,-7.362817 2.82406,-2.577516 4.95148,-5.748573 6.38226,-9.51318 1.43063,-3.764502 2.14741,-7.933321 2.15036,-12.506468 -0.0345,-4.57589 -0.92903,-8.70457 -2.68365,-12.386053 -1.75476,-3.681328 -4.16316,-6.709027 -7.22519,-9.083104 -3.08225,-2.477122 -6.96435,-4.335029 -11.64634,-5.573726 -4.68209,-1.238514 -10.25007,-1.857815 -16.70396,-1.8579057 -6.37656,0.011564 -11.89293,0.1950607 -16.54915,0.5504917 -4.65625,0.355616 -8.58996,0.814358 -11.80115,1.376228 z m 20.78104,-76.793526 c 1.53676,-0.435729 4.38096,-0.665101 8.53262,-0.688114 5.32423,0.03448 9.40131,1.238682 12.23122,3.612599 2.82982,2.374064 4.25765,5.711413 4.28351,10.012059 -0.0545,4.719374 -1.66586,8.389312 -4.834,11.009824 -3.16824,2.620617 -7.56643,3.950969 -13.19458,3.991061 -1.5655,0.0029 -2.90732,-0.03722 -4.02547,-0.120419 -1.11822,-0.0831 -2.11598,-0.226456 -2.9933,-0.430072 z"
         style="line-height:120.00000477%;fill:#ffffff;font-family:Myriad Pro;-inkscape-font-specification:Myriad Pro Bold"
         id="path3006"
         inkscape:connector-curvature="0" />
      <path
         d="m 948.47455,79.602053 7.15639,23.808747 22.70776,0 -28.90079,-92.757771 -27.52456,0 -28.21267,92.757771 21.60678,0 6.60589,-23.808747 z m -23.5335,-15.689 5.50491,-19.68006 c 0.75402,-2.749529 1.48228,-5.714151 2.18477,-8.893877 0.7024,-3.179589 1.39625,-6.178615 2.08154,-8.997087 l 0.27525,0 c 0.6938,2.809875 1.43925,5.791699 2.23636,8.945482 0.79702,3.153918 1.61129,6.135743 2.44281,8.945482 l 5.78016,19.68006 z"
         style="line-height:120.00000477%;fill:#ffffff;font-family:Myriad Pro;-inkscape-font-specification:Myriad Pro Bold"
         id="path3008"
         inkscape:connector-curvature="0" />
      <path
         d="m 1045.9951,103.4108 20.781,0 0,-36.470045 6.1931,0 c 4.2662,-0.05157 7.5692,0.980595 9.9088,3.096511 2.3395,2.115983 4.1286,6.038229 5.3673,11.766751 1.3217,5.725697 2.5316,10.410602 3.6298,14.054728 1.0981,3.644141 1.9983,6.161485 2.7008,7.552055 l 21.4692,0 c -0.9118,-1.9984 -2.0128,-5.502046 -3.3029,-10.510947 -1.2903,-5.008881 -2.6666,-10.267212 -4.1287,-15.775011 -1.1355,-4.286346 -2.6837,-7.893207 -4.6448,-10.820594 -1.9612,-2.927312 -4.5416,-5.054728 -7.7413,-6.382256 l 0,-0.412868 c 4.1745,-1.479402 7.9018,-4.163045 11.1819,-8.050936 3.2799,-3.887788 5.0117,-8.773392 5.1952,-14.656827 -0.01,-4.271972 -0.7484,-8.045128 -2.2191,-11.319479 -1.471,-3.274195 -3.6213,-6.015178 -6.4511,-8.222958 -3.2801,-2.591809 -7.3858,-4.461184 -12.3173,-5.608131 -4.9315,-1.146764 -10.8263,-1.7087227 -17.6845,-1.6858777 -5.6798,0.011564 -10.9037,0.1950607 -15.6718,0.5504917 -4.768,0.355616 -8.8566,0.814358 -12.2656,1.376228 z m 20.781,-77.068771 c 0.7397,-0.209227 1.8751,-0.375522 3.4062,-0.498886 1.531,-0.123209 3.561,-0.186285 6.0898,-0.189228 4.8569,0.0087 8.6301,1.092459 11.3195,3.251341 2.6893,2.159032 4.0541,5.341555 4.0943,9.547579 -0.04,4.108675 -1.5082,7.348541 -4.404,9.719607 -2.8958,2.371177 -6.9786,3.581111 -12.2484,3.629805 l -8.2574,0 z"
         style="line-height:120.00000477%;fill:#ffffff;font-family:Myriad Pro;-inkscape-font-specification:Myriad Pro Bold"
         id="path3010"
         inkscape:connector-curvature="0" />
      <path
         d="m 1238.2688,47.123072 -34.1304,0 0,-19.267193 36.1948,0 0,-17.20285 -57.1135,0 0,92.757771 59.0402,0 0,-17.202853 -38.1215,0 0,-22.019648 34.1304,0 z"
         style="line-height:120.00000477%;fill:#ffffff;font-family:Myriad Pro;-inkscape-font-specification:Myriad Pro Bold"
         id="path3012"
         inkscape:connector-curvature="0" />
      <path
         d="m 1331.1035,103.4108 0,-27.937431 c 0,-7.540547 -0.072,-14.651051 -0.2237,-21.331535 -0.152,-6.680385 -0.3985,-13.102776 -0.7397,-19.267192 l 0.5505,0 c 2.2535,5.50211 4.7996,11.081562 7.6381,16.738374 2.8384,5.656916 5.6597,10.995528 8.4638,16.015853 l 19.8177,35.781931 22.0196,0 0,-92.757771 -19.2672,0 0,26.974069 c -0.01,6.993018 0.1118,13.68492 0.3613,20.075727 0.2493,6.390899 0.6794,12.635527 1.2902,18.733903 l -0.2753,0 c -2.1533,-5.289845 -4.5215,-10.674332 -7.1047,-16.153477 -2.5834,-5.479059 -5.2613,-10.691517 -8.0338,-15.63739 l -19.2672,-33.992832 -24.4968,0 0,92.757771 z"
         style="line-height:120.00000477%;fill:#ffffff;font-family:Myriad Pro;-inkscape-font-specification:Myriad Pro Bold"
         id="path3014"
         inkscape:connector-curvature="0" />
      <path
         d="m 1480.123,103.4108 20.9186,0 0,-75.142052 25.3226,0 0,-17.615719 -71.2886,0 0,17.615719 25.0474,0 z"
         style="line-height:120.00000477%;fill:#ffffff;font-family:Myriad Pro;-inkscape-font-specification:Myriad Pro Bold"
         id="path3016"
         inkscape:connector-curvature="0" />
      <path
         d="m 1641.167,79.602053 7.1564,23.808747 22.7077,0 -28.9008,-92.757771 -27.5245,0 -28.2127,92.757771 21.6068,0 6.6059,-23.808747 z m -23.5335,-15.689 5.5049,-19.68006 c 0.754,-2.749529 1.4823,-5.714151 2.1848,-8.893877 0.7024,-3.179589 1.3962,-6.178615 2.0815,-8.997087 l 0.2752,0 c 0.6938,2.809875 1.4393,5.791699 2.2364,8.945482 0.797,3.153918 1.6113,6.135743 2.4428,8.945482 l 5.7802,19.68006 z"
         style="line-height:120.00000477%;fill:#ffffff;font-family:Myriad Pro;-inkscape-font-specification:Myriad Pro Bold"
         id="path3018"
         inkscape:connector-curvature="0" />
      <path
         d="m 1738.8251,103.4108 57.8016,0 0,-17.615721 -36.8829,0 0,-75.14205 -20.9187,0 z"
         style="line-height:120.00000477%;fill:#ffffff;font-family:Myriad Pro;-inkscape-font-specification:Myriad Pro Bold"
         id="path3020"
         inkscape:connector-curvature="0" />
    </g>
    <g
       transform="matrix(0.70646125,0,0,1.4155058,-264.1,206)"
       style="font-size:121.9509201px;font-style:normal;font-variant:normal;font-weight:bold;font-stretch:normal;text-align:start;line-height:120.00000477%;letter-spacing:0px;word-spacing:0px;writing-mode:lr-tb;text-anchor:start;fill:#ffffff;fill-opacity:1;stroke:#ffffff;stroke-width:1.83699989;stroke-miterlimit:4;stroke-opacity:1;display:inline;font-family:Myriad Pro;-inkscape-font-specification:Myriad Pro Bold"
       id="text3774-1">
      <path
         d="m 913.71547,413.87622 c 2.08075,0.31757 4.80936,0.59704 8.18585,0.8384 3.37645,0.24136 7.35504,0.36839 11.93579,0.38109 8.1223,-0.0127 14.8041,-0.65802 20.04542,-1.93594 5.24123,-1.27793 9.33161,-3.11225 12.27116,-5.50297 2.59644,-2.07313 4.65941,-4.57309 6.18893,-7.49989 1.52938,-2.92676 2.31188,-6.28037 2.34752,-10.06082 -0.0941,-5.27428 -1.64384,-9.63396 -4.64932,-13.07907 -3.00561,-3.44503 -6.9029,-5.79255 -11.69189,-7.04257 l 0,-0.2439 c 4.61877,-1.82411 8.03335,-4.27326 10.24374,-7.34745 2.21027,-3.07408 3.30781,-6.43785 3.29264,-10.0913 -0.0483,-3.79307 -0.95788,-7.0603 -2.72862,-9.80169 -1.77087,-2.74124 -4.11331,-4.88043 -7.02733,-6.41758 -2.97511,-1.74024 -6.38461,-2.95465 -10.2285,-3.64324 -3.84399,-0.68842 -8.56444,-1.0187 -14.16137,-0.99083 -4.80433,0.0179 -9.37234,0.19571 -13.70406,0.53352 -4.33176,0.33799 -7.77174,0.72924 -10.31996,1.17377 z m 18.41435,-68.41359 c 0.71134,-0.12696 1.6971,-0.23875 2.95727,-0.33536 1.26011,-0.0965 2.91659,-0.14729 4.96944,-0.15244 4.23007,0.008 7.47697,0.81561 9.7407,2.42375 2.26364,1.60827 3.40691,3.97104 3.42983,7.0883 -0.008,3.08944 -1.2729,5.53859 -3.79568,7.34745 -2.52287,1.80897 -6.25756,2.73375 -11.20409,2.77435 l -6.09747,0 z m 0,32.43853 6.34136,0 c 4.75091,-0.033 8.69394,0.85622 11.82909,2.66764 3.13507,1.81149 4.76106,4.74335 4.87798,8.7956 -0.13471,4.28603 -1.72513,7.36016 -4.77128,9.22241 -3.04623,1.86229 -6.74028,2.77183 -11.08214,2.72862 -1.57267,0.005 -2.93952,-0.005 -4.10055,-0.0305 -1.16108,-0.0254 -2.19257,-0.0965 -3.09446,-0.21341 z"
         style="line-height:120.00000477%;fill:#ffffff;stroke:#ffffff;font-family:Myriad Pro;-inkscape-font-specification:Myriad Pro Bold"
         id="path3023"
         inkscape:connector-curvature="0" />
      <path
         d="m 1011.9698,332.0482 0,82.19387 18.5363,0 0,-82.19387 z"
         style="line-height:120.00000477%;fill:#ffffff;stroke:#ffffff;font-family:Myriad Pro;-inkscape-font-specification:Myriad Pro Bold"
         id="path3025"
         inkscape:connector-curvature="0" />
      <path
         d="m 1071.156,414.24207 18.4144,0 0,-26.82886 6.9511,-8.65841 20.2436,35.48727 21.585,0 -28.5361,-47.1944 27.1947,-34.99947 -22.9265,0 -18.5363,27.31666 c -0.9782,1.45836 -1.9487,2.93192 -2.9116,4.42066 -0.9629,1.48885 -1.9029,3.02338 -2.82,4.60359 l -0.2439,0 0,-36.34091 -18.4144,0 z"
         style="line-height:120.00000477%;fill:#ffffff;stroke:#ffffff;font-family:Myriad Pro;-inkscape-font-specification:Myriad Pro Bold"
         id="path3027"
         inkscape:connector-curvature="0" />
      <path
         d="m 1219.381,364.36478 -30.2434,0 0,-17.07291 32.0727,0 0,-15.24367 -50.609,0 0,82.19387 52.3162,0 0,-15.24367 -33.7799,0 0,-19.5119 30.2434,0 z"
         style="line-height:120.00000477%;fill:#ffffff;stroke:#ffffff;font-family:Myriad Pro;-inkscape-font-specification:Myriad Pro Bold"
         id="path3029"
         inkscape:connector-curvature="0" />
      <path
         d="m 1260.037,414.24207 18.4144,0 0,-32.31658 5.4877,0 c 3.7804,-0.0457 6.7072,0.86892 8.7804,2.74386 2.0731,1.875 3.6584,5.35055 4.756,10.42667 1.1712,5.07361 2.2433,9.22497 3.2164,12.45407 0.973,3.22912 1.7707,5.45978 2.3933,6.69198 l 19.024,0 c -0.8079,-1.77081 -1.7835,-4.87544 -2.9267,-9.31389 -1.1434,-4.43843 -2.3629,-9.09791 -3.6585,-13.97844 -1.0062,-3.79819 -2.3781,-6.99427 -4.1158,-9.58827 -1.7378,-2.59393 -4.0244,-4.47906 -6.8597,-5.6554 l 0,-0.36585 c 3.6991,-1.31091 7.0019,-3.68892 9.9084,-7.13404 2.9064,-3.44502 4.4409,-7.77421 4.6036,-12.9876 -0.01,-3.78545 -0.6632,-7.12889 -1.9664,-10.03034 -1.3034,-2.9013 -3.2089,-5.33013 -5.7164,-7.28647 -2.9065,-2.29663 -6.5447,-3.95311 -10.9145,-4.96944 -4.3699,-1.01616 -9.5933,-1.51412 -15.6705,-1.49387 -5.0329,0.0102 -9.6619,0.17284 -13.8869,0.48779 -4.2251,0.31512 -7.848,0.72162 -10.8688,1.2195 z m 18.4144,-68.29164 c 0.6554,-0.1854 1.6615,-0.33276 3.0182,-0.44207 1.3567,-0.10918 3.1554,-0.16507 5.3963,-0.16768 4.3037,0.008 7.6472,0.96805 10.0303,2.88106 2.3831,1.91314 3.5924,4.73322 3.628,8.46023 -0.036,3.64075 -1.3364,6.51164 -3.9024,8.61267 -2.566,2.10113 -6.1839,3.17327 -10.8535,3.21642 l -7.3169,0 z"
         style="line-height:120.00000477%;fill:#ffffff;stroke:#ffffff;font-family:Myriad Pro;-inkscape-font-specification:Myriad Pro Bold"
         id="path3031"
         inkscape:connector-curvature="0" />
      <path
         d="m 1473.26,393.14483 6.3414,21.09724 20.1217,0 -25.6094,-82.19387 -24.3899,0 -24.9996,82.19387 19.1461,0 5.8535,-21.09724 z m -20.8533,-13.90223 4.878,-17.43876 c 0.6681,-2.43639 1.3134,-5.06338 1.9359,-7.88097 0.6224,-2.81748 1.2373,-5.47496 1.8445,-7.97244 l 0.2439,0 c 0.6148,2.48987 1.2754,5.1321 1.9817,7.92671 0.7062,2.79473 1.4278,5.43696 2.1646,7.9267 l 5.1219,17.43876 z"
         style="line-height:120.00000477%;fill:#ffffff;stroke:#ffffff;font-family:Myriad Pro;-inkscape-font-specification:Myriad Pro Bold"
         id="path3033"
         inkscape:connector-curvature="0" />
      <path
         d="m 1551.1165,414.24207 18.5363,0 0,-66.58435 22.4387,0 0,-15.60952 -63.1698,0 0,15.60952 22.1948,0 z"
         style="line-height:120.00000477%;fill:#ffffff;stroke:#ffffff;font-family:Myriad Pro;-inkscape-font-specification:Myriad Pro Bold"
         id="path3035"
         inkscape:connector-curvature="0" />
      <path
         d="m 1700.3256,414.24207 51.2187,0 0,-15.60952 -32.6824,0 0,-66.58435 -18.5363,0 z"
         style="line-height:120.00000477%;fill:#ffffff;stroke:#ffffff;font-family:Myriad Pro;-inkscape-font-specification:Myriad Pro Bold"
         id="path3037"
         inkscape:connector-curvature="0" />
      <path
         d="m 1829.8235,393.14483 6.3414,21.09724 20.1216,0 -25.6093,-82.19387 -24.3899,0 -24.9996,82.19387 19.146,0 5.8536,-21.09724 z m -20.8533,-13.90223 4.878,-17.43876 c 0.6681,-2.43639 1.3134,-5.06338 1.9359,-7.88097 0.6224,-2.81748 1.2372,-5.47496 1.8445,-7.97244 l 0.2439,0 c 0.6148,2.48987 1.2753,5.1321 1.9817,7.92671 0.7062,2.79473 1.4277,5.43696 2.1646,7.9267 l 5.1218,17.43876 z"
         style="line-height:120.00000477%;fill:#ffffff;stroke:#ffffff;font-family:Myriad Pro;-inkscape-font-specification:Myriad Pro Bold"
         id="path3039"
         inkscape:connector-curvature="0" />
      <path
         d="m 1891.7047,414.24207 18.4143,0 0,-32.31658 5.4877,0 c 3.7804,-0.0457 6.7072,0.86892 8.7804,2.74386 2.0731,1.875 3.6584,5.35055 4.756,10.42667 1.1712,5.07361 2.2433,9.22497 3.2164,12.45407 0.973,3.22912 1.7708,5.45978 2.3933,6.69198 l 19.0241,0 c -0.808,-1.77081 -1.7836,-4.87544 -2.9268,-9.31389 -1.1433,-4.43843 -2.3628,-9.09791 -3.6585,-13.97844 -1.0061,-3.79819 -2.3781,-6.99427 -4.1158,-9.58827 -1.7378,-2.59393 -4.0244,-4.47906 -6.8596,-5.6554 l 0,-0.36585 c 3.699,-1.31091 7.0018,-3.68892 9.9084,-7.13404 2.9064,-3.44502 4.4409,-7.77421 4.6035,-12.9876 -0.01,-3.78545 -0.6631,-7.12889 -1.9664,-10.03034 -1.3034,-2.9013 -3.2088,-5.33013 -5.7164,-7.28647 -2.9065,-2.29663 -6.5446,-3.95311 -10.9144,-4.96944 -4.3699,-1.01616 -9.5934,-1.51412 -15.6705,-1.49387 -5.033,0.0102 -9.662,0.17284 -13.887,0.48779 -4.2251,0.31512 -7.848,0.72162 -10.8687,1.2195 z m 18.4143,-68.29164 c 0.6555,-0.1854 1.6615,-0.33276 3.0183,-0.44207 1.3566,-0.10918 3.1554,-0.16507 5.3962,-0.16768 4.3038,0.008 7.6472,0.96805 10.0304,2.88106 2.383,1.91314 3.5923,4.73322 3.6279,8.46023 -0.036,3.64075 -1.3364,6.51164 -3.9023,8.61267 -2.5661,2.10113 -6.1839,3.17327 -10.8535,3.21642 l -7.317,0 z"
         style="line-height:120.00000477%;fill:#ffffff;stroke:#ffffff;font-family:Myriad Pro;-inkscape-font-specification:Myriad Pro Bold"
         id="path3041"
         inkscape:connector-curvature="0" />
      <path
         d="m 2057.3036,367.16962 -30.6093,0 0,14.51197 12.6828,0 0,17.31681 c -0.7572,0.3125 -1.9259,0.57165 -3.5061,0.77742 -1.5803,0.20581 -3.4197,0.31251 -5.5182,0.32012 -7.7514,-0.0559 -13.9861,-2.41356 -18.704,-7.07306 -4.7179,-4.65946 -7.1417,-11.28537 -7.2712,-19.87775 0.1702,-8.95052 2.787,-15.62216 7.8505,-20.01493 5.0634,-4.39266 11.5521,-6.58266 19.4662,-6.57002 4.4587,0.0179 8.1934,0.34813 11.204,0.99084 3.0106,0.64284 5.6173,1.4914 7.82,2.54569 l 3.9024,-14.99977 c -2.0478,-0.96282 -5.0254,-1.84187 -8.9328,-2.63716 -3.9075,-0.79513 -8.5314,-1.21687 -13.8717,-1.26522 -13.7397,0.0814 -24.9183,3.82116 -33.5361,11.21934 -8.6177,7.39832 -13.0892,17.96726 -13.4144,31.70683 0.018,6.08226 1.0188,11.69192 3.003,16.82901 1.9842,5.13713 4.8449,9.52731 8.5822,13.17053 3.7626,3.60513 8.4018,6.33375 13.9175,8.18585 5.5156,1.8521 12.0145,2.78197 19.4966,2.78959 5.5334,-0.0711 10.7467,-0.59958 15.64,-1.58534 4.8932,-0.98576 8.826,-2.002 11.7986,-3.04873 z"
         style="line-height:120.00000477%;fill:#ffffff;stroke:#ffffff;font-family:Myriad Pro;-inkscape-font-specification:Myriad Pro Bold"
         id="path3043"
         inkscape:connector-curvature="0" />
      <path
         d="m 2145.2076,364.36478 -30.2434,0 0,-17.07291 32.0726,0 0,-15.24367 -50.6089,0 0,82.19387 52.3162,0 0,-15.24367 -33.7799,0 0,-19.5119 30.2434,0 z"
         style="line-height:120.00000477%;fill:#ffffff;stroke:#ffffff;font-family:Myriad Pro;-inkscape-font-specification:Myriad Pro Bold"
         id="path3045"
         inkscape:connector-curvature="0" />
    </g>
  </g>
  <g
     inkscape:groupmode="layer"
     id="layer1"
     inkscape:label="Registration"
     style="display:inline"
     transform="translate(0,-393.96218)" />
</svg>
