<?xml version="1.0" encoding="UTF-8" standalone="no"?>
<!-- Created with Inkscape (http://www.inkscape.org/) -->

<svg
   xmlns:dc="http://purl.org/dc/elements/1.1/"
   xmlns:cc="http://creativecommons.org/ns#"
   xmlns:rdf="http://www.w3.org/1999/02/22-rdf-syntax-ns#"
   xmlns:svg="http://www.w3.org/2000/svg"
   xmlns="http://www.w3.org/2000/svg"
   xmlns:xlink="http://www.w3.org/1999/xlink"
   xmlns:sodipodi="http://sodipodi.sourceforge.net/DTD/sodipodi-0.dtd"
   xmlns:inkscape="http://www.inkscape.org/namespaces/inkscape"
   width="952"
   height="657"
   id="svg2"
   version="1.1"
   inkscape:version="0.48.4 r9939"
   sodipodi:docname="Parental Advisory 16-3-2014 - TEXT TO PATH.svg"
   style="enable-background:new">
  <defs
     id="defs4">
    <linearGradient
       inkscape:collect="always"
       id="linearGradient5194">
      <stop
         style="stop-color:#ffffff;stop-opacity:1;"
         offset="0"
         id="stop5196" />
      <stop
         style="stop-color:#ffffff;stop-opacity:0;"
         offset="1"
         id="stop5198" />
    </linearGradient>
    <linearGradient
       inkscape:collect="always"
       xlink:href="#linearGradient5194"
       id="linearGradient5200"
       x1="572.34784"
       y1="146.43976"
       x2="1603.174"
       y2="146.43976"
       gradientUnits="userSpaceOnUse"
       gradientTransform="translate(116.98897,84.530001)" />
  </defs>
  <sodipodi:namedview
     id="base"
     pagecolor="#ffffff"
     bordercolor="#666666"
     borderopacity="1.0"
     inkscape:pageopacity="0.0"
     inkscape:pageshadow="2"
     inkscape:zoom="0.52547676"
     inkscape:cx="621.72927"
     inkscape:cy="441.37837"
     inkscape:document-units="px"
     inkscape:current-layer="layer2"
     showgrid="false"
     inkscape:window-width="1366"
     inkscape:window-height="705"
     inkscape:window-x="-8"
     inkscape:window-y="-8"
     inkscape:window-maximized="1"
     fit-margin-top="100"
     fit-margin-left="100"
     fit-margin-right="100"
     fit-margin-bottom="100" />
  <metadata
     id="metadata7">
    <rdf:RDF>
      <cc:Work
         rdf:about="">
        <dc:format>image/svg+xml</dc:format>
        <dc:type
           rdf:resource="http://purl.org/dc/dcmitype/StillImage" />
        <dc:title />
        <dc:description>Print A3 Landscape</dc:description>
      </cc:Work>
    </rdf:RDF>
  </metadata>
  <g
     inkscape:groupmode="layer"
     id="layer3"
     inkscape:label="Background Boxes"
     style="display:inline"
     transform="translate(-341.34392,-178.16116)">
    <rect
       style="fill:none;stroke:#000000;stroke-width:10.00001907;stroke-linejoin:miter;stroke-miterlimit:4;stroke-opacity:1;stroke-dasharray:none;display:inline"
       id="rect3011"
       width="941.35956"
       height="646.62006"
       x="348.11435"
       y="183.75163"
       transform="matrix(0.99999982,-5.9936232e-4,-0.00213204,0.99999773,0,0)" />
    <rect
       style="fill:#000000;fill-opacity:1;stroke:none"
       id="rect3800"
       width="912.21295"
       height="153.41289"
       x="359.49899"
       y="198.29546" />
    <rect
       style="fill:#000000;fill-opacity:1;stroke:none;display:inline"
       id="rect3800-4"
       width="912.21259"
       height="161.60632"
       x="359.49899"
       y="654.25226" />
  </g>
  <g
     inkscape:groupmode="layer"
     id="layer2"
     inkscape:label="Text"
     style="display:inline"
     transform="translate(-341.34392,-178.16116)">
    <g
       transform="scale(0.7739127,1.2921354)"
       style="font-size:63.73529434px;font-style:normal;font-variant:normal;font-weight:normal;font-stretch:normal;line-height:125%;letter-spacing:0px;word-spacing:0px;fill:#000000;fill-opacity:1;stroke:#000000;stroke-width:10;stroke-miterlimit:4;stroke-opacity:1;font-family:Myriad Pro;-inkscape-font-specification:Myriad Pro"
       id="text3002">
      <path
         d="m 592.85896,429.11278 12.26251,40.79643 38.90989,0 -49.52167,-158.941 -47.16351,0 -48.34258,158.941 37.02334,0 11.31924,-40.79643 z m -40.32479,-26.88319 9.4327,-33.72191 c 1.29201,-4.71133 2.53988,-9.79123 3.7436,-15.23971 1.20358,-5.44824 2.3925,-10.58709 3.56674,-15.41656 l 0.47164,0 c 1.18883,4.81474 2.46618,9.92411 3.83203,15.32814 1.36569,5.40425 2.76095,10.51363 4.18576,15.32813 l 9.90434,33.72191 z"
         style="font-size:235.82054138px;font-weight:bold;stroke:#000000;-inkscape-font-specification:Myriad Pro Bold"
         id="path3014" />
      <path
         d="m 665.08007,469.20176 c 4.35278,0.6141 9.91413,1.15452 16.68409,1.62124 6.76989,0.46672 14.80733,0.71237 24.11234,0.73693 15.63758,0.0147 29.69818,-1.66546 42.18186,-5.0406 12.48347,-3.37513 22.94786,-8.53363 31.3932,-15.47552 7.69341,-6.45548 13.94256,-15.00386 18.74749,-25.64516 4.80462,-10.64121 7.2807,-23.5522 7.42825,-38.73302 -0.0886,-14.00648 -2.50571,-25.96438 -7.25139,-35.87374 -4.74597,-9.90912 -11.2899,-17.91708 -19.6318,-24.02391 -7.42346,-5.65947 -16.39435,-9.90418 -26.91268,-12.73414 -10.51854,-2.82965 -23.32145,-4.24456 -38.40877,-4.24472 -9.0299,0.0149 -17.67653,0.33915 -25.93993,0.97275 -8.26347,0.63392 -15.73102,1.48876 -22.40266,2.56452 z m 35.84426,-130.40708 c 1.53276,-0.36834 3.65511,-0.69258 6.36707,-0.97275 2.71185,-0.2799 6.01329,-0.42729 9.90434,-0.44216 15.72108,0.0394 28.02288,4.32345 36.90543,12.85205 8.88235,8.52885 13.40218,21.06647 13.55951,37.6129 -0.21137,18.94407 -5.1537,32.99485 -14.82702,42.15238 -9.67352,9.15761 -22.81051,13.65779 -39.411,13.50055 -2.18629,0.0148 -4.41673,-0.0147 -6.69133,-0.0884 -2.27471,-0.0737 -4.21038,-0.28001 -5.807,-0.61902 z"
         style="font-size:235.82054138px;font-weight:bold;stroke:#000000;-inkscape-font-specification:Myriad Pro Bold"
         id="path3016" />
      <path
         d="m 908.51953,469.90921 53.53058,-158.941 -38.20244,0 -20.28031,67.91544 c -2.72181,9.08888 -5.29615,18.32506 -7.72302,27.70856 -2.42704,9.38362 -4.64765,18.85562 -6.66184,28.41601 l -0.70746,0 c -1.90135,-9.84043 -4.05318,-19.40085 -6.4555,-28.68131 -2.40246,-9.28032 -4.96697,-18.66389 -7.69355,-28.15071 l -19.33703,-67.20799 -39.38153,0 50.93659,158.941 z"
         style="font-size:235.82054138px;font-weight:bold;stroke:#000000;-inkscape-font-specification:Myriad Pro Bold"
         id="path3018" />
      <path
         d="m 979.43622,310.96821 0,158.941 35.84428,0 0,-158.941 z"
         style="font-size:235.82054138px;font-weight:bold;stroke:#000000;-inkscape-font-specification:Myriad Pro Bold"
         id="path3020" />
      <path
         d="m 1040.3149,462.36305 c 4.6623,2.57926 11.0195,4.849 19.0717,6.80923 8.0522,1.96023 16.7086,2.99193 25.9694,3.09511 21.7492,-0.38813 37.8535,-5.27151 48.3131,-14.65017 10.4594,-9.37864 15.6572,-20.92386 15.5935,-34.63569 0.044,-11.12759 -3.2869,-20.5308 -9.9928,-28.20968 -6.7062,-7.67872 -17.0527,-14.07526 -31.0395,-19.18964 -10.3072,-3.7042 -17.8141,-7.14321 -22.5206,-10.31702 -4.7065,-3.1736 -7.0254,-7.20215 -6.9566,-12.08564 -0.01,-4.14635 1.8963,-7.70326 5.7186,-10.67075 3.8222,-2.96724 9.6193,-4.5197 17.3915,-4.65739 7.6984,0.12295 14.3504,0.99744 19.9561,2.62347 5.6055,1.62629 9.9583,3.26718 13.0584,4.92269 l 8.0178,-28.76974 c -4.6821,-2.29415 -10.3515,-4.19052 -17.0084,-5.6891 -6.657,-1.49826 -14.5077,-2.27449 -23.5522,-2.32869 -18.8065,0.29002 -33.4862,4.83933 -44.0389,13.64794 -10.5529,8.8089 -15.9177,20.13795 -16.0946,33.98719 0.1769,11.48638 4.1858,21.05663 12.0267,28.71078 7.8409,7.65433 18.4527,13.80523 31.8354,18.45272 9.467,3.19343 16.2959,6.47522 20.4866,9.84539 4.1906,3.37028 6.2442,7.47743 6.1607,12.32146 -0.02,5.2568 -2.1617,9.42291 -6.426,12.49833 -4.2644,3.07548 -10.5332,4.64759 -18.8064,4.71635 -7.7771,-0.10315 -15.1563,-1.13485 -22.1374,-3.09511 -6.9812,-1.96021 -12.8865,-4.22995 -17.7158,-6.80923 z"
         style="font-size:235.82054138px;font-weight:bold;stroke:#000000;-inkscape-font-specification:Myriad Pro Bold"
         id="path3022" />
      <path
         d="m 1243.6059,308.1384 c -23.6506,0.49145 -42.3784,8.41098 -56.1835,23.75862 -13.8052,15.34791 -20.86,35.17621 -21.1646,59.48496 0.1818,23.29194 6.7748,42.50122 19.7792,57.6279 13.0043,15.12671 31.3293,22.95782 54.9749,23.49332 23.6799,-0.21617 42.5257,-7.62476 56.5373,-22.2258 14.0113,-14.601 21.1841,-35.09745 21.5183,-61.48941 -0.094,-22.65312 -6.5686,-41.60693 -19.4254,-56.8615 -12.8571,-15.25429 -31.5358,-23.18365 -56.0362,-23.78809 z m -0.7074,28.53392 c 12.4245,0.42264 21.8867,5.70887 28.3865,15.85873 6.4996,10.15008 9.7716,22.62875 9.8159,37.43603 -0.074,15.76544 -3.4047,28.62731 -9.9927,38.58563 -6.5883,9.9584 -15.9915,15.09726 -28.2097,15.41657 -12.1349,-0.26035 -21.5872,-5.22234 -28.3571,-14.88598 -6.77,-9.66356 -10.209,-22.46647 -10.317,-38.40877 0.079,-15.76529 3.4586,-28.62716 10.1402,-38.58565 6.6814,-9.95824 16.1927,-15.09709 28.5339,-15.41656 z"
         style="font-size:235.82054138px;font-weight:bold;stroke:#000000;-inkscape-font-specification:Myriad Pro Bold"
         id="path3024" />
      <path
         d="m 1342.6035,469.90921 35.6085,0 0,-62.49164 10.6118,0 c 7.3102,-0.0884 12.9699,1.68026 16.9788,5.30589 4.0088,3.62575 7.0745,10.34654 9.1969,20.1624 2.2647,9.81102 4.338,17.83863 6.2197,24.08286 1.8815,6.24426 3.4242,10.55775 4.6279,12.94049 l 36.7875,0 c -1.5624,-3.42427 -3.4489,-9.42778 -5.6596,-18.01057 -2.2109,-8.58274 -4.5691,-17.59293 -7.0745,-27.03057 -1.9456,-7.34468 -4.5986,-13.52506 -7.9588,-18.54116 -3.3605,-5.01596 -7.7821,-8.6613 -13.2648,-10.93603 l 0,-0.70745 c 7.153,-2.53497 13.5398,-7.13341 19.1602,-13.79533 5.6202,-6.66175 8.5876,-15.03326 8.9021,-25.11456 -0.015,-7.32005 -1.2824,-13.78538 -3.8026,-19.396 -2.5204,-5.61035 -6.205,-10.30704 -11.0539,-14.09009 -5.6204,-4.44108 -12.6556,-7.64426 -21.1057,-9.60956 -8.4502,-1.96499 -18.551,-2.92791 -30.3025,-2.88877 -9.7325,0.0198 -18.6837,0.33424 -26.8537,0.94327 -8.1702,0.60935 -15.1759,1.39541 -21.0173,2.35818 z m 35.6085,-132.0578 c 1.2674,-0.35851 3.2129,-0.64346 5.8365,-0.85485 2.6234,-0.21112 6.1017,-0.3192 10.4349,-0.32424 8.3223,0.0149 14.7876,1.87194 19.396,5.57119 4.6082,3.69952 6.9467,9.15279 7.0155,16.35984 -0.069,7.04024 -2.5842,12.59177 -7.5461,16.6546 -4.9621,4.06303 -11.958,6.13626 -20.9878,6.2197 l -14.149,0 z"
         style="font-size:235.82054138px;font-weight:bold;stroke:#000000;-inkscape-font-specification:Myriad Pro Bold"
         id="path3026" />
      <path
         d="m 1555.2538,469.90921 0,-66.26472 52.3514,-92.67628 -40.3247,0 -16.0356,38.20244 c -2.3436,5.60078 -4.4954,10.84772 -6.4555,15.74082 -1.9603,4.89331 -3.8174,9.78652 -5.5712,14.67964 l -0.4717,0 c -1.8522,-5.08472 -3.7485,-10.00741 -5.6891,-14.76808 -1.9406,-4.76046 -4.1318,-9.97791 -6.5734,-15.65238 l -16.0356,-38.20244 -41.268,0 50.2291,93.85537 0,65.08563 z"
         style="font-size:235.82054138px;font-weight:bold;stroke:#000000;-inkscape-font-specification:Myriad Pro Bold"
         id="path3028" />
    </g>
    <g
       transform="scale(0.84273609,1.1866111)"
       style="font-size:137.53125px;font-style:normal;font-variant:normal;font-weight:bold;font-stretch:normal;text-align:start;line-height:120.00000477%;letter-spacing:0px;word-spacing:0px;writing-mode:lr-tb;text-anchor:start;fill:#ffffff;fill-opacity:1;stroke:none;font-family:Myriad Pro;-inkscape-font-specification:Myriad Pro Bold"
       id="text3774">
      <path
         d="m 452.01478,278.43668 20.76695,0 0,-33.28214 c 0.96841,0.20346 2.05718,0.34672 3.26633,0.42978 1.20908,0.0831 2.50415,0.12324 3.88521,0.12034 6.22316,0.006 11.89625,-0.79649 17.01927,-2.40677 5.12291,-1.6102 9.48947,-4.06281 13.09968,-7.35782 2.82215,-2.57577 4.94812,-5.74468 6.37793,-9.50673 1.42966,-3.76195 2.14596,-7.92794 2.1489,-12.49799 -0.0345,-4.57279 -0.9284,-8.69867 -2.68183,-12.37765 -1.75357,-3.67884 -4.16033,-6.70448 -7.22029,-9.07695 -3.08015,-2.47544 -6.95963,-4.33209 -11.63844,-5.56994 -4.67891,-1.23768 -10.24312,-1.85656 -16.69264,-1.85665 -6.37223,0.0116 -11.88486,0.19493 -16.53792,0.55012 -4.65309,0.35537 -8.58414,0.8138 -11.79315,1.37529 z m 20.76695,-76.74145 c 1.53572,-0.43544 4.37799,-0.66465 8.52683,-0.68765 5.32063,0.0345 9.39493,1.23784 12.22293,3.61015 2.8279,2.37245 4.25477,5.70754 4.28061,10.00527 -0.0545,4.71617 -1.66474,8.38362 -4.83073,11.00236 -3.16609,2.61884 -7.5613,3.94829 -13.18563,3.98835 -1.56444,0.003 -2.90535,-0.0372 -4.02275,-0.12034 -1.11745,-0.083 -2.11454,-0.2263 -2.99126,-0.42978 z"
         style="line-height:120.00000477%;fill:#ffffff;font-family:Myriad Pro;-inkscape-font-specification:Myriad Pro Bold"
         id="path2997" />
      <path
         d="m 635.26381,254.64408 7.15153,23.7926 22.69236,0 -28.88119,-92.69487 -27.50589,0 -28.19355,92.69487 21.59213,0 6.60142,-23.7926 z m -23.51754,-15.67836 5.50118,-19.66672 c 0.7535,-2.74766 1.48126,-5.71028 2.18328,-8.88785 0.70193,-3.17743 1.39531,-6.17442 2.08013,-8.99098 l 0.27506,0 c 0.69333,2.80797 1.43828,5.78777 2.23485,8.93941 0.79648,3.15178 1.61019,6.13159 2.44115,8.93942 l 5.77624,19.66672 z"
         style="line-height:120.00000477%;fill:#ffffff;font-family:Myriad Pro;-inkscape-font-specification:Myriad Pro Bold"
         id="path2999" />
      <path
         d="m 732.71821,278.43668 20.76695,0 0,-36.44532 6.18883,0 c 4.26337,-0.0515 7.56408,0.97993 9.90212,3.09442 2.33795,2.11454 4.12584,6.03413 5.36365,11.75877 1.3208,5.72181 2.52992,10.40354 3.62734,14.04519 1.09732,3.64167 1.99699,6.15732 2.69902,7.54694 l 21.4546,0 c -0.91121,-1.99705 -2.01145,-5.49832 -3.30071,-10.50382 -1.28941,-5.00549 -2.66471,-10.26025 -4.12589,-15.76431 -1.13468,-4.28344 -2.68189,-7.88786 -4.64162,-10.81326 -1.95985,-2.92533 -4.53853,-5.0513 -7.73603,-6.37793 l 0,-0.41259 c 4.17167,-1.4784 7.89642,-4.16022 11.17427,-8.04547 3.27771,-3.88516 5.00829,-8.76745 5.19174,-14.64689 -0.009,-4.26908 -0.74789,-8.03968 -2.21767,-11.31181 -1.46992,-3.27197 -3.61881,-6.0111 -6.44669,-8.21738 -3.27785,-2.59005 -7.38081,-4.45816 -12.30889,-5.60433 -4.92819,-1.14598 -10.81903,-1.70756 -17.67253,-1.68473 -5.67599,0.0116 -10.89638,0.19493 -15.66117,0.55012 -4.76484,0.35537 -8.85061,0.8138 -12.25732,1.37529 z m 20.76695,-77.01651 c 0.73919,-0.20909 1.87381,-0.37527 3.40386,-0.49855 1.52998,-0.12313 3.55854,-0.18616 6.08568,-0.1891 4.85359,0.009 8.62419,1.09172 11.31179,3.24914 2.68751,2.15756 4.05134,5.33793 4.09151,9.5411 -0.0402,4.10589 -1.50715,7.34356 -4.40094,9.71302 -2.8939,2.36957 -6.97394,3.57868 -12.24013,3.62734 l -8.25177,0 z"
         style="line-height:120.00000477%;fill:#ffffff;font-family:Myriad Pro;-inkscape-font-specification:Myriad Pro Bold"
         id="path3001" />
      <path
         d="m 924.86155,222.18712 -34.10731,0 0,-19.25413 36.17025,0 0,-17.19118 -57.07473,0 0,92.69487 59.00015,0 0,-17.19119 -38.09567,0 0,-22.00472 34.10731,0 z"
         style="line-height:120.00000477%;fill:#ffffff;font-family:Myriad Pro;-inkscape-font-specification:Myriad Pro Bold"
         id="path3003" />
      <path
         d="m 1017.6333,278.43668 0,-27.91849 c 0,-7.53543 -0.072,-14.64111 -0.2235,-21.31707 -0.1519,-6.67585 -0.3983,-13.09389 -0.7392,-19.25412 l 0.5501,0 c 2.252,5.49837 4.7963,11.07404 7.6329,16.72702 2.8365,5.65308 5.6558,10.98807 8.458,16.00499 l 19.8043,35.75767 22.0047,0 0,-92.69487 -19.2541,0 0,26.95577 c -0.01,6.98828 0.1117,13.67565 0.361,20.06212 0.2492,6.38656 0.679,12.62696 1.2893,18.7212 l -0.275,0 c -2.1519,-5.28626 -4.5185,-10.6671 -7.1,-16.14253 -2.5816,-5.47534 -5.2577,-10.68426 -8.0283,-15.62678 l -19.2541,-33.96978 -24.48024,0 0,92.69487 z"
         style="line-height:120.00000477%;fill:#ffffff;font-family:Myriad Pro;-inkscape-font-specification:Myriad Pro Bold"
         id="path3005" />
      <path
         d="m 1166.5517,278.43668 20.9045,0 0,-75.0911 25.3054,0 0,-17.60377 -71.2403,0 0,17.60377 25.0304,0 z"
         style="line-height:120.00000477%;fill:#ffffff;font-family:Myriad Pro;-inkscape-font-specification:Myriad Pro Bold"
         id="path3007" />
      <path
         d="m 1327.4865,254.64408 7.1516,23.7926 22.6923,0 -28.8812,-92.69487 -27.5059,0 -28.1935,92.69487 21.5921,0 6.6014,-23.7926 z m -23.5175,-15.67836 5.5012,-19.66672 c 0.7535,-2.74766 1.4812,-5.71028 2.1832,-8.88785 0.702,-3.17743 1.3954,-6.17442 2.0802,-8.99098 l 0.275,0 c 0.6934,2.80797 1.4383,5.78777 2.2349,8.93941 0.7965,3.15178 1.6102,6.13159 2.4411,8.93942 l 5.7763,19.66672 z"
         style="line-height:120.00000477%;fill:#ffffff;font-family:Myriad Pro;-inkscape-font-specification:Myriad Pro Bold"
         id="path3009" />
      <path
         d="m 1425.0785,278.43668 57.7623,0 0,-17.60378 -36.8579,0 0,-75.09109 -20.9044,0 z"
         style="line-height:120.00000477%;fill:#ffffff;font-family:Myriad Pro;-inkscape-font-specification:Myriad Pro Bold"
         id="path3011" />
    </g>
    <g
       transform="scale(0.66369759,1.5067103)"
       style="font-size:114.5689621px;font-style:normal;font-variant:normal;font-weight:bold;font-stretch:normal;text-align:start;line-height:120.00000477%;letter-spacing:0px;word-spacing:0px;writing-mode:lr-tb;text-anchor:start;fill:#ffffff;fill-opacity:1;stroke:#ffffff;stroke-width:1.836797;stroke-miterlimit:4;stroke-opacity:1;display:inline;font-family:Myriad Pro;-inkscape-font-specification:Myriad Pro Bold"
       id="text3774-1">
      <path
         d="m 621.46542,480.09545 -28.41274,0 0,-16.03945 30.13125,0 0,-14.32093 -47.54551,0 0,77.21848 49.14946,0 0,-14.32093 -31.7352,0 0,-18.3308 28.41274,0 z"
         style="line-height:120.00000477%;fill:#ffffff;stroke:#ffffff;font-family:Myriad Pro;-inkscape-font-specification:Myriad Pro Bold"
         id="path3031" />
      <path
         d="m 720.49577,526.95355 -22.91349,-39.52578 21.76782,-37.6927 -19.93474,0 -6.53035,14.0918 c -0.95716,2.18161 -1.84983,4.26292 -2.67802,6.24392 -0.82826,1.98112 -1.69229,4.177 -2.59209,6.58764 l -0.22913,0 c -0.90225,-2.14571 -1.81879,-4.24133 -2.74962,-6.2869 -0.93089,-2.04544 -1.962,-4.227 -3.09332,-6.54466 l -6.75948,-14.0918 -20.04931,0 21.53868,38.15097 -22.34066,39.06751 19.93475,0 6.30121,-13.97723 c 1.25544,-2.65413 2.38201,-5.07914 3.37974,-7.27504 0.99766,-2.19585 1.8951,-4.39173 2.69233,-6.58763 l 0.22914,0 c 1.05971,2.1959 2.11946,4.39178 3.17925,6.58763 1.05971,2.1959 2.29131,4.62091 3.6948,7.27504 l 6.98862,13.97723 z"
         style="line-height:120.00000477%;fill:#ffffff;stroke:#ffffff;font-family:Myriad Pro;-inkscape-font-specification:Myriad Pro Bold"
         id="path3033" />
      <path
         d="m 752.97149,526.95355 17.29969,0 0,-27.72533 c 0.80672,0.16949 1.71371,0.28883 2.72098,0.35802 1.00721,0.0693 2.08605,0.10266 3.23653,0.10025 5.18414,0.005 9.91005,-0.66351 14.17772,-2.00493 4.26759,-1.34137 7.90511,-3.38448 10.91256,-6.12936 2.35096,-2.14572 4.12198,-4.78554 5.31306,-7.91948 1.19097,-3.13385 1.78767,-6.60429 1.79012,-10.41132 -0.0287,-3.80931 -0.77339,-7.24633 -2.23407,-10.31107 -1.46079,-3.06462 -3.46572,-5.5851 -6.01479,-7.56146 -2.56588,-2.06214 -5.79764,-3.6088 -9.69527,-4.63998 -3.89772,-1.03103 -8.53293,-1.54659 -13.90563,-1.54666 -5.30832,0.01 -9.90056,0.16238 -13.77674,0.45827 -3.87621,0.29604 -7.15093,0.67793 -9.82416,1.14567 z m 17.29969,-63.92866 c 1.27931,-0.36273 3.64703,-0.55368 7.10318,-0.57283 4.4323,0.0287 7.82635,1.03117 10.18219,3.00739 2.35575,1.97635 3.54438,4.75461 3.56591,8.33479 -0.0454,3.92876 -1.38679,6.98389 -4.02418,9.1654 -2.63748,2.18159 -6.29886,3.28908 -10.98416,3.32245 -1.30324,0.002 -2.42027,-0.031 -3.3511,-0.10024 -0.93089,-0.0692 -1.7615,-0.18852 -2.49184,-0.35803 z"
         style="line-height:120.00000477%;fill:#ffffff;stroke:#ffffff;font-family:Myriad Pro;-inkscape-font-specification:Myriad Pro Bold"
         id="path3035" />
      <path
         d="m 842.59304,526.95355 48.11835,0 0,-14.66464 -30.70409,0 0,-62.55384 -17.41426,0 z"
         style="line-height:120.00000477%;fill:#ffffff;stroke:#ffffff;font-family:Myriad Pro;-inkscape-font-specification:Myriad Pro Bold"
         id="path3037" />
      <path
         d="m 924.26818,449.73507 0,77.21848 17.41426,0 0,-77.21848 z"
         style="line-height:120.00000477%;fill:#ffffff;stroke:#ffffff;font-family:Myriad Pro;-inkscape-font-specification:Myriad Pro Bold"
         id="path3039" />
      <path
         d="m 1033.9476,511.14324 c -1.8284,0.75664 -4.0434,1.36289 -6.6449,1.81876 -2.6017,0.45589 -5.275,0.6898 -8.0198,0.70172 -7.793,-0.0835 -13.8316,-2.351 -18.1159,-6.80244 -4.28441,-4.4514 -6.45642,-10.58553 -6.51607,-18.4024 0.16229,-8.58297 2.53001,-14.9892 7.10317,-19.2187 4.5731,-4.22939 10.3779,-6.33934 17.4143,-6.32985 3.1529,0.0263 5.955,0.31751 8.4064,0.87358 2.4512,0.55619 4.5373,1.21972 6.2582,1.9906 l 3.6662,-13.74809 c -1.5802,-0.89499 -4.0052,-1.68264 -7.2751,-2.36296 -3.27,-0.68017 -7.1844,-1.03819 -11.7431,-1.07407 -11.9819,0.0574 -21.93018,3.58031 -29.84486,10.56885 -7.91472,6.98868 -12.02005,17.09925 -12.31601,30.33174 0.0167,11.23719 3.42031,20.44077 10.21083,27.61077 6.79049,7.17001 16.86764,10.87436 30.23154,11.11304 4.6876,-0.0453 8.7452,-0.41292 12.1728,-1.10271 3.4274,-0.68979 5.9383,-1.4297 7.5328,-2.21974 z"
         style="line-height:120.00000477%;fill:#ffffff;stroke:#ffffff;font-family:Myriad Pro;-inkscape-font-specification:Myriad Pro Bold"
         id="path3041" />
      <path
         d="m 1071.2834,449.73507 0,77.21848 17.4143,0 0,-77.21848 z"
         style="line-height:120.00000477%;fill:#ffffff;stroke:#ffffff;font-family:Myriad Pro;-inkscape-font-specification:Myriad Pro Bold"
         id="path3043" />
      <path
         d="m 1141.8954,526.95355 17.4142,0 0,-62.55385 21.0804,0 0,-14.66463 -59.3459,0 0,14.66463 20.8513,0 z"
         style="line-height:120.00000477%;fill:#ffffff;stroke:#ffffff;font-family:Myriad Pro;-inkscape-font-specification:Myriad Pro Bold"
         id="path3045" />
      <path
         d="m 1312.9857,511.14324 c -1.8284,0.75664 -4.0433,1.36289 -6.6449,1.81876 -2.6017,0.45589 -5.2749,0.6898 -8.0197,0.70172 -7.7931,-0.0835 -13.8317,-2.351 -18.116,-6.80244 -4.2844,-4.4514 -6.4564,-10.58553 -6.5161,-18.4024 0.1623,-8.58297 2.5301,-14.9892 7.1032,-19.2187 4.5731,-4.22939 10.3779,-6.33934 17.4143,-6.32985 3.1529,0.0263 5.9551,0.31751 8.4064,0.87358 2.4512,0.55619 4.5373,1.21972 6.2582,1.9906 l 3.6662,-13.74809 c -1.5802,-0.89499 -4.0052,-1.68264 -7.275,-2.36296 -3.27,-0.68017 -7.1844,-1.03819 -11.7432,-1.07407 -11.9819,0.0574 -21.9302,3.58031 -29.8448,10.56885 -7.9148,6.98868 -12.0201,17.09925 -12.316,30.33174 0.017,11.23719 3.4203,20.44077 10.2108,27.61077 6.7905,7.17001 16.8676,10.87436 30.2315,11.11304 4.6876,-0.0453 8.7452,-0.41292 12.1728,-1.10271 3.4274,-0.68979 5.9383,-1.4297 7.5328,-2.21974 z"
         style="line-height:120.00000477%;fill:#ffffff;stroke:#ffffff;font-family:Myriad Pro;-inkscape-font-specification:Myriad Pro Bold"
         id="path3047" />
      <path
         d="m 1384.2335,448.36026 c -11.4902,0.23876 -20.5888,4.08631 -27.2957,11.54267 -6.707,7.4565 -10.1345,17.0897 -10.2824,28.89965 0.088,11.31595 3.2914,20.64842 9.6093,27.99743 6.3179,7.34903 15.2208,11.15362 26.7086,11.41378 11.5044,-0.10502 20.6602,-3.70434 27.4675,-10.79798 6.8072,-7.09362 10.2919,-17.05144 10.4543,-29.87347 -0.045,-11.00559 -3.1913,-20.21395 -9.4375,-27.62509 -6.2464,-7.41101 -15.3211,-11.26334 -27.2241,-11.55699 z m -0.3437,13.86266 c 6.0362,0.20533 10.6332,2.77355 13.7911,7.70467 3.1577,4.93122 4.7473,10.99375 4.7688,18.18758 -0.036,7.65935 -1.6541,13.90804 -4.8548,18.74611 -3.2007,4.8381 -7.7691,7.33471 -13.7051,7.48985 -5.8955,-0.12649 -10.4877,-2.53718 -13.7767,-7.23208 -3.2891,-4.69485 -4.9599,-10.91491 -5.0124,-18.66017 0.038,-7.65927 1.6803,-13.90797 4.9264,-18.74611 3.2461,-4.83803 7.867,-7.33464 13.8627,-7.48985 z"
         style="line-height:120.00000477%;fill:#ffffff;stroke:#ffffff;font-family:Myriad Pro;-inkscape-font-specification:Myriad Pro Bold"
         id="path3049" />
      <path
         d="m 1471.4171,526.95355 0,-23.2572 c 0,-6.27731 -0.06,-12.19663 -0.1861,-17.75796 -0.1266,-5.56125 -0.3318,-10.90773 -0.6158,-16.03945 l 0.4582,0 c 1.876,4.58037 3.9955,9.22512 6.3585,13.93428 2.3629,4.70923 4.7116,9.15349 7.0459,13.33279 l 16.4977,29.78754 18.3308,0 0,-77.21848 -16.0394,0 0,22.45522 c -0.01,5.82151 0.093,11.39235 0.3007,16.71254 0.2076,5.32026 0.5656,10.51875 1.0741,15.59549 l -0.2291,0 c -1.7926,-4.40366 -3.7641,-8.88611 -5.9146,-13.44735 -2.1506,-4.56118 -4.3799,-8.90042 -6.6879,-13.01773 l -16.0394,-28.29817 -20.393,0 0,77.21848 z"
         style="line-height:120.00000477%;fill:#ffffff;stroke:#ffffff;font-family:Myriad Pro;-inkscape-font-specification:Myriad Pro Bold"
         id="path3051" />
      <path
         d="m 1572.424,526.95355 17.4143,0 0,-62.55385 21.0804,0 0,-14.66463 -59.3459,0 0,14.66463 20.8512,0 z"
         style="line-height:120.00000477%;fill:#ffffff;stroke:#ffffff;font-family:Myriad Pro;-inkscape-font-specification:Myriad Pro Bold"
         id="path3053" />
      <path
         d="m 1689.284,480.09545 -28.4127,0 0,-16.03945 30.1312,0 0,-14.32093 -47.5455,0 0,77.21848 49.1495,0 0,-14.32093 -31.7352,0 0,-18.3308 28.4127,0 z"
         style="line-height:120.00000477%;fill:#ffffff;stroke:#ffffff;font-family:Myriad Pro;-inkscape-font-specification:Myriad Pro Bold"
         id="path3055" />
      <path
         d="m 1743.5184,526.95355 0,-23.2572 c 0,-6.27731 -0.06,-12.19663 -0.1862,-17.75796 -0.1265,-5.56125 -0.3318,-10.90773 -0.6158,-16.03945 l 0.4583,0 c 1.876,4.58037 3.9955,9.22512 6.3585,13.93428 2.3629,4.70923 4.7115,9.15349 7.0459,13.33279 l 16.4977,29.78754 18.3308,0 0,-77.21848 -16.0395,0 0,22.45522 c -0.01,5.82151 0.093,11.39235 0.3008,16.71254 0.2076,5.32026 0.5656,10.51875 1.0741,15.59549 l -0.2292,0 c -1.7925,-4.40366 -3.7641,-8.88611 -5.9145,-13.44735 -2.1506,-4.56118 -4.3799,-8.90042 -6.6879,-13.01773 l -16.0395,-28.29817 -20.393,0 0,77.21848 z"
         style="line-height:120.00000477%;fill:#ffffff;stroke:#ffffff;font-family:Myriad Pro;-inkscape-font-specification:Myriad Pro Bold"
         id="path3057" />
      <path
         d="m 1844.5254,526.95355 17.4142,0 0,-62.55385 21.0804,0 0,-14.66463 -59.3459,0 0,14.66463 20.8513,0 z"
         style="line-height:120.00000477%;fill:#ffffff;stroke:#ffffff;font-family:Myriad Pro;-inkscape-font-specification:Myriad Pro Bold"
         id="path3059" />
    </g>
  </g>
</svg>
