<?xml version="1.0" encoding="UTF-8" standalone="no"?>
<!-- Created with Inkscape (http://www.inkscape.org/) -->

<svg
   xmlns:dc="http://purl.org/dc/elements/1.1/"
   xmlns:cc="http://creativecommons.org/ns#"
   xmlns:rdf="http://www.w3.org/1999/02/22-rdf-syntax-ns#"
   xmlns:svg="http://www.w3.org/2000/svg"
   xmlns="http://www.w3.org/2000/svg"
   xmlns:xlink="http://www.w3.org/1999/xlink"
   xmlns:sodipodi="http://sodipodi.sourceforge.net/DTD/sodipodi-0.dtd"
   xmlns:inkscape="http://www.inkscape.org/namespaces/inkscape"
   width="952"
   height="657"
   id="svg2"
   version="1.1"
   inkscape:version="0.48.4 r9939"
   sodipodi:docname="Parental Advisory 16-3-2014 - TEXT TO PATH - Copy.svg"
   style="enable-background:new">
  <defs
     id="defs4">
    <linearGradient
       inkscape:collect="always"
       id="linearGradient5194">
      <stop
         style="stop-color:#ffffff;stop-opacity:1;"
         offset="0"
         id="stop5196" />
      <stop
         style="stop-color:#ffffff;stop-opacity:0;"
         offset="1"
         id="stop5198" />
    </linearGradient>
    <linearGradient
       inkscape:collect="always"
       xlink:href="#linearGradient5194"
       id="linearGradient5200"
       x1="572.34784"
       y1="146.43976"
       x2="1603.174"
       y2="146.43976"
       gradientUnits="userSpaceOnUse"
       gradientTransform="translate(116.98897,84.530001)" />
  </defs>
  <sodipodi:namedview
     id="base"
     pagecolor="#ffffff"
     bordercolor="#666666"
     borderopacity="1.0"
     inkscape:pageopacity="0.0"
     inkscape:pageshadow="2"
     inkscape:zoom="1.0509535"
     inkscape:cx="571.93382"
     inkscape:cy="173.75797"
     inkscape:document-units="px"
     inkscape:current-layer="layer3"
     showgrid="false"
     inkscape:window-width="1366"
     inkscape:window-height="705"
     inkscape:window-x="-8"
     inkscape:window-y="-8"
     inkscape:window-maximized="1"
     fit-margin-top="100"
     fit-margin-left="100"
     fit-margin-right="100"
     fit-margin-bottom="100" />
  <metadata
     id="metadata7">
    <rdf:RDF>
      <cc:Work
         rdf:about="">
        <dc:format>image/svg+xml</dc:format>
        <dc:type
           rdf:resource="http://purl.org/dc/dcmitype/StillImage" />
        <dc:title />
        <dc:description>Print A3 Landscape</dc:description>
      </cc:Work>
    </rdf:RDF>
  </metadata>
  <g
     inkscape:groupmode="layer"
     id="layer3"
     inkscape:label="Background Boxes"
     style="display:inline"
     transform="translate(-341.34392,-178.16116)">
    <rect
       style="fill:none;stroke:#000000;stroke-width:10.00001907;stroke-linejoin:miter;stroke-miterlimit:4;stroke-opacity:1;stroke-dasharray:none;display:inline"
       id="rect3011"
       width="941.35956"
       height="646.62006"
       x="348.11435"
       y="183.75163"
       transform="matrix(0.99999982,-5.9936232e-4,-0.00213204,0.99999773,0,0)" />
    <path
       style="fill:#000000;fill-opacity:1;stroke:none"
       d="M 18.15625 20.125 L 18.15625 173.5625 L 930.375 173.5625 L 930.375 20.125 L 18.15625 20.125 z M 63.46875 41.4375 C 68.903993 41.437607 73.588164 42.156355 77.53125 43.625 C 81.474252 45.093847 84.747996 47.312615 87.34375 50.25 C 89.922489 53.065199 91.928453 56.634648 93.40625 61 C 94.883929 65.365519 95.658426 70.261377 95.6875 75.6875 C 95.685 81.110372 95.079826 86.067278 93.875 90.53125 C 92.670048 94.99534 90.878328 98.756063 88.5 101.8125 C 85.457546 105.7224 81.786011 108.62057 77.46875 110.53125 C 73.151396 112.44203 68.369482 113.41337 63.125 113.40625 C 61.961131 113.40925 60.862685 113.34865 59.84375 113.25 C 58.824756 113.1514 57.909864 112.99143 57.09375 112.75 L 57.09375 152.25 L 39.59375 152.25 L 39.59375 43.71875 C 42.298099 43.05248 45.609923 42.515436 49.53125 42.09375 C 53.452552 41.672278 58.098642 41.451265 63.46875 41.4375 z M 299.6875 41.4375 C 305.46319 41.41041 310.40934 42.077667 314.5625 43.4375 C 318.71557 44.797558 322.17514 46.989118 324.9375 50.0625 C 327.32066 52.680496 329.13625 55.929944 330.375 59.8125 C 331.61364 63.695246 332.24242 68.184262 332.25 73.25 C 332.0954 80.226609 330.63724 86.014826 327.875 90.625 C 325.11264 95.235281 321.95312 98.433214 318.4375 100.1875 L 318.4375 100.65625 C 321.13215 102.23044 323.31711 104.74752 324.96875 108.21875 C 326.62029 111.69006 327.91876 115.97972 328.875 121.0625 C 330.10639 127.59368 331.25712 133.84168 332.34375 139.78125 C 333.43026 145.72083 334.35709 149.88028 335.125 152.25 L 317.0625 152.25 C 316.47087 150.60106 315.706 147.6025 314.78125 143.28125 C 313.85641 138.96003 312.83184 133.41456 311.71875 126.625 C 310.6756 119.83208 309.18902 115.16539 307.21875 112.65625 C 305.2484 110.14717 302.4679 108.93889 298.875 109 L 293.65625 109 L 293.65625 152.25 L 276.15625 152.25 L 276.15625 43.71875 C 279.02721 43.05248 282.45325 42.515436 286.46875 42.09375 C 290.48421 41.672278 294.90414 41.451265 299.6875 41.4375 z M 171.65625 42.25 L 194.8125 42.25 L 219.15625 152.25 L 200.03125 152.25 L 194.03125 124 L 171.65625 124 L 166.09375 152.25 L 147.875 152.25 L 171.65625 42.25 z M 391.71875 42.25 L 439.8125 42.25 L 439.8125 62.65625 L 409.3125 62.65625 L 409.3125 85.5 L 438.0625 85.5 L 438.0625 105.71875 L 409.3125 105.71875 L 409.3125 131.84375 L 441.4375 131.84375 L 441.4375 152.25 L 391.71875 152.25 L 391.71875 42.25 z M 500.03125 42.25 L 520.65625 42.25 L 536.875 82.5625 C 539.20988 88.427349 541.48064 94.596651 543.65625 101.09375 C 545.83177 107.59096 547.81152 113.97727 549.625 120.25 L 549.875 120.25 C 549.36068 113.01851 548.99126 105.60961 548.78125 98.03125 C 548.57116 90.452994 548.46032 82.511121 548.46875 74.21875 L 548.46875 42.25 L 564.6875 42.25 L 564.6875 152.25 L 546.15625 152.25 L 529.46875 109.8125 C 527.10723 103.85937 524.73417 97.520507 522.34375 90.8125 C 519.95324 84.104611 517.80409 77.493177 515.90625 70.96875 L 515.4375 70.96875 C 515.72479 78.278547 515.93449 85.890862 516.0625 93.8125 C 516.19017 101.73427 516.25 110.15213 516.25 119.09375 L 516.25 152.25 L 500.03125 152.25 L 500.03125 42.25 z M 620.65625 42.25 L 680.6875 42.25 L 680.6875 63.125 L 659.375 63.125 L 659.375 152.25 L 641.75 152.25 L 641.75 63.125 L 620.65625 63.125 L 620.65625 42.25 z M 755 42.25 L 778.1875 42.25 L 802.53125 152.25 L 783.40625 152.25 L 777.375 124 L 755 124 L 749.4375 152.25 L 731.25 152.25 L 755 42.25 z M 859.625 42.25 L 877.25 42.25 L 877.25 131.34375 L 908.3125 131.34375 L 908.3125 152.25 L 859.625 152.25 L 859.625 42.25 z M 301.65625 60.03125 C 299.52654 60.034739 297.78937 60.103893 296.5 60.25 C 295.21057 60.396285 294.27919 60.595641 293.65625 60.84375 L 293.65625 91.03125 L 300.59375 91.03125 C 305.03176 90.97351 308.46746 89.530508 310.90625 86.71875 C 313.34495 83.907122 314.59112 80.090845 314.625 75.21875 C 314.59115 70.231222 313.45236 66.435185 311.1875 63.875 C 308.92256 61.314981 305.74655 60.041929 301.65625 60.03125 z M 64.28125 60.34375 C 60.784873 60.37104 58.387957 60.670802 57.09375 61.1875 L 57.09375 93.65625 C 57.832594 93.897702 58.652035 94.057761 59.59375 94.15625 C 60.535423 94.2549 61.68159 94.31606 63 94.3125 C 67.739826 94.26496 71.425572 92.670045 74.09375 89.5625 C 76.761844 86.455074 78.141571 82.09626 78.1875 76.5 C 78.16572 71.400266 76.945673 67.440176 74.5625 64.625 C 72.179242 61.809991 68.765137 60.384688 64.28125 60.34375 z M 182.4375 60.84375 C 181.86038 64.185911 181.27904 67.729626 180.6875 71.5 C 180.09588 75.27054 179.47875 78.802096 178.84375 82.0625 L 174.1875 105.40625 L 191.46875 105.40625 L 186.59375 82.0625 C 185.89347 78.730698 185.20247 75.208687 184.53125 71.46875 C 183.85995 67.728979 183.24054 64.175718 182.65625 60.84375 L 182.4375 60.84375 z M 765.78125 60.84375 C 765.20414 64.185911 764.62285 67.729626 764.03125 71.5 C 763.43965 75.27054 762.8225 78.802096 762.1875 82.0625 L 757.5625 105.40625 L 774.8125 105.40625 L 769.96875 82.0625 C 769.26852 78.730698 768.57749 75.208687 767.90625 71.46875 C 767.23493 67.728979 766.6156 64.175718 766.03125 60.84375 L 765.78125 60.84375 z "
       transform="translate(341.34392,178.16116)"
       id="rect3800" />
    <path
       style="fill:#000000;fill-opacity:1;stroke:none;display:inline"
       d="M 18.15625 476.09375 L 18.15625 637.6875 L 930.375 637.6875 L 930.375 476.09375 L 18.15625 476.09375 z M 577.375 497.375 C 585.27499 497.81745 591.29178 503.64625 595.4375 514.8125 C 599.58309 525.97894 601.65763 539.85526 601.6875 556.4375 C 601.57972 575.75658 599.26792 590.74947 594.75 601.4375 C 590.23201 612.12556 584.16669 617.56052 576.53125 617.71875 C 568.90682 617.32676 563.00568 611.57286 558.8125 600.5 C 554.61932 589.42717 552.49591 575.36236 552.4375 558.3125 C 552.53566 540.51833 554.79858 526.01604 559.25 514.78125 C 563.70135 503.54668 569.74898 497.73474 577.375 497.375 z M 334.625 497.71875 C 337.6506 497.77281 340.23596 498.31893 342.40625 499.34375 C 344.57647 500.3688 346.20123 501.55776 347.25 502.90625 L 344.8125 523.625 C 343.67034 522.46351 342.28311 521.46302 340.65625 520.625 C 339.02926 519.78716 337.15507 519.35213 335.0625 519.3125 C 330.39246 519.2982 326.56641 522.47128 323.53125 528.84375 C 320.49605 535.21638 318.92021 544.88045 318.8125 557.8125 C 318.85209 569.59026 320.28145 578.82428 323.125 585.53125 C 325.96848 592.23828 329.98405 595.65544 335.15625 595.78125 C 336.97797 595.76329 338.74201 595.40564 340.46875 594.71875 C 342.19536 594.03189 343.6615 593.10879 344.875 591.96875 L 346.5625 612.6875 C 345.50423 613.87786 343.83726 614.99194 341.5625 616.03125 C 339.28761 617.07056 336.5799 617.6505 333.46875 617.71875 C 324.59916 617.35913 317.91308 611.77188 313.40625 600.96875 C 308.8994 590.16564 306.63608 576.27494 306.625 559.34375 C 306.82143 539.40622 309.55952 524.18617 314.8125 513.65625 C 320.06545 503.12654 326.67264 497.80524 334.625 497.71875 z M 519.8125 497.71875 C 522.83816 497.77281 525.45471 498.31893 527.625 499.34375 C 529.79516 500.3688 531.38873 501.55776 532.4375 502.90625 L 530 523.625 C 528.85784 522.46351 527.47061 521.46302 525.84375 520.625 C 524.21683 519.78716 522.37382 519.35213 520.28125 519.3125 C 515.61121 519.2982 511.75391 522.47128 508.71875 528.84375 C 505.68359 535.21638 504.10772 544.88045 504 557.8125 C 504.03962 569.59026 505.46895 578.82428 508.3125 585.53125 C 511.15598 592.23828 515.17149 595.65544 520.34375 595.78125 C 522.16547 595.76329 523.92951 595.40564 525.65625 594.71875 C 527.38293 594.03189 528.88025 593.10879 530.09375 591.96875 L 531.75 612.6875 C 530.69173 613.87786 529.02476 614.99194 526.75 616.03125 C 524.47511 617.07056 521.79865 617.6505 518.6875 617.71875 C 509.81791 617.35913 503.13184 611.77188 498.625 600.96875 C 494.11816 590.16564 491.85503 576.27494 491.84375 559.34375 C 492.04014 539.40622 494.74697 524.18617 500 513.65625 C 505.2529 503.12654 511.86014 497.80524 519.8125 497.71875 z M 174.0625 498.59375 C 177.62835 498.59386 180.69434 499.38404 183.28125 500.9375 C 185.8681 502.49119 188.01578 504.7992 189.71875 507.90625 C 191.41056 510.88405 192.74923 514.69501 193.71875 519.3125 C 194.6882 523.93018 195.1997 529.10422 195.21875 534.84375 C 195.21712 540.57984 194.82169 545.80945 194.03125 550.53125 C 193.24073 555.25319 192.06033 559.23577 190.5 562.46875 C 188.50396 566.60449 186.08239 569.66644 183.25 571.6875 C 180.41756 573.70863 177.28445 574.72628 173.84375 574.71875 C 173.08018 574.72238 172.35598 574.66692 171.6875 574.5625 C 171.01898 574.45825 170.41042 574.28662 169.875 574.03125 L 169.875 615.8125 L 158.40625 615.8125 L 158.40625 501 C 160.18047 500.29525 162.33362 499.7273 164.90625 499.28125 C 167.47886 498.83543 170.53938 498.60882 174.0625 498.59375 z M 40.71875 499.46875 L 72.25 499.46875 L 72.25 521.03125 L 52.25 521.03125 L 52.25 545.21875 L 71.125 545.21875 L 71.125 566.59375 L 52.25 566.59375 L 52.25 594.21875 L 73.3125 594.21875 L 73.3125 615.8125 L 40.71875 615.8125 L 40.71875 499.46875 z M 93.1875 499.46875 L 106.5 499.46875 L 111 520.6875 C 111.75085 524.17954 112.44467 527.48061 113.0625 530.5625 C 113.68029 533.64458 114.27618 536.79829 114.875 540.03125 L 115.03125 540.03125 C 115.62845 536.39911 116.20029 533.07872 116.75 530.09375 C 117.29967 527.10896 117.89599 523.97455 118.53125 520.6875 L 122.84375 499.46875 L 136.09375 499.46875 L 121.625 556.25 L 136.84375 615.8125 L 123.46875 615.8125 L 118.8125 594.75 C 117.88101 590.75099 117.07833 587.08984 116.375 583.78125 C 115.67162 580.47274 114.95333 577.15234 114.25 573.84375 L 114.125 573.84375 C 113.59588 577.15234 112.97464 580.47274 112.3125 583.78125 C 111.65031 587.08984 110.92698 590.75099 110.09375 594.75 L 105.90625 615.8125 L 92.65625 615.8125 L 107.5 556.9375 L 93.1875 499.46875 z M 217.875 499.46875 L 229.4375 499.46875 L 229.4375 593.71875 L 249.8125 593.71875 L 249.8125 615.8125 L 217.875 615.8125 L 217.875 499.46875 z M 272.09375 499.46875 L 283.65625 499.46875 L 283.65625 615.8125 L 272.09375 615.8125 L 272.09375 499.46875 z M 369.65625 499.46875 L 381.21875 499.46875 L 381.21875 615.8125 L 369.65625 615.8125 L 369.65625 499.46875 z M 402.6875 499.46875 L 442.0625 499.46875 L 442.0625 521.5625 L 428.09375 521.5625 L 428.09375 615.8125 L 416.53125 615.8125 L 416.53125 521.5625 L 402.6875 521.5625 L 402.6875 499.46875 z M 624.59375 499.46875 L 638.125 499.46875 L 648.78125 542.09375 C 650.31306 548.29734 651.7914 554.84637 653.21875 561.71875 C 654.64603 568.59122 655.93526 575.33371 657.125 581.96875 L 657.28125 581.96875 C 656.94376 574.31957 656.70028 566.48484 656.5625 558.46875 C 656.42465 550.45276 656.36836 542.05258 656.375 533.28125 L 656.375 499.46875 L 667.03125 499.46875 L 667.03125 615.8125 L 654.84375 615.8125 L 643.90625 570.9375 C 642.35698 564.64051 640.787 557.9392 639.21875 550.84375 C 637.65043 543.74841 636.2451 536.74504 635 529.84375 L 634.6875 529.84375 C 634.87599 537.57577 635.00973 545.62081 635.09375 554 C 635.17744 562.37931 635.21875 571.29191 635.21875 580.75 L 635.21875 615.8125 L 624.59375 615.8125 L 624.59375 499.46875 z M 688.4375 499.46875 L 727.8125 499.46875 L 727.8125 521.5625 L 713.8125 521.5625 L 713.8125 615.8125 L 702.28125 615.8125 L 702.28125 521.5625 L 688.4375 521.5625 L 688.4375 499.46875 z M 749.40625 499.46875 L 780.96875 499.46875 L 780.96875 521.03125 L 760.96875 521.03125 L 760.96875 545.21875 L 779.84375 545.21875 L 779.84375 566.59375 L 760.96875 566.59375 L 760.96875 594.21875 L 782.03125 594.21875 L 782.03125 615.8125 L 749.40625 615.8125 L 749.40625 499.46875 z M 805.1875 499.46875 L 818.71875 499.46875 L 829.375 542.09375 C 830.90681 548.29734 832.38515 554.84637 833.8125 561.71875 C 835.23972 568.59122 836.52907 575.33371 837.71875 581.96875 L 837.875 581.96875 C 837.53751 574.31957 837.29403 566.48484 837.15625 558.46875 C 837.01833 550.45276 836.96211 542.05258 836.96875 533.28125 L 836.96875 499.46875 L 847.59375 499.46875 L 847.59375 615.8125 L 835.4375 615.8125 L 824.5 570.9375 C 822.95066 564.64051 821.38075 557.9392 819.8125 550.84375 C 818.24418 543.74841 816.83885 536.74504 815.59375 529.84375 L 815.28125 529.84375 C 815.46974 537.57577 815.60354 545.62081 815.6875 554 C 815.77126 562.37931 815.8125 571.29191 815.8125 580.75 L 815.8125 615.8125 L 805.1875 615.8125 L 805.1875 499.46875 z M 869.03125 499.46875 L 908.40625 499.46875 L 908.40625 521.5625 L 894.40625 521.5625 L 894.40625 615.8125 L 882.875 615.8125 L 882.875 521.5625 L 869.03125 521.5625 L 869.03125 499.46875 z M 577.125 518.28125 C 573.14567 518.51511 570.09193 522.27299 567.9375 529.5625 C 565.78307 536.85218 564.68147 546.2722 564.65625 557.8125 C 564.69109 569.48236 565.81703 578.83247 568 585.90625 C 570.1829 592.9801 573.21217 596.62192 577.125 596.8125 C 581.06471 596.57875 584.1257 592.82087 586.25 585.53125 C 588.3743 578.24168 589.44486 568.82167 589.46875 557.28125 C 589.45448 546.44223 588.37701 537.30492 586.28125 529.875 C 584.18536 522.44523 581.13121 518.59062 577.125 518.28125 z M 174.59375 518.625 C 172.29991 518.65385 170.72407 518.92222 169.875 519.46875 L 169.875 553.84375 C 170.35972 554.09915 170.91342 554.27074 171.53125 554.375 C 172.14904 554.47932 172.88504 554.53426 173.75 554.53125 C 176.85962 554.48097 179.31201 552.81827 181.0625 549.53125 C 182.81293 546.24435 183.68862 541.63825 183.71875 535.71875 C 183.70446 530.32446 182.90726 526.13404 181.34375 523.15625 C 179.78018 520.17866 177.53546 518.66824 174.59375 518.625 z "
       transform="translate(341.34392,178.16116)"
       id="rect3800-4" />
  </g>
  <g
     inkscape:groupmode="layer"
     id="layer2"
     inkscape:label="Text"
     style="display:inline"
     transform="translate(-341.34392,-178.16116)">
    <g
       transform="scale(0.7739127,1.2921354)"
       style="font-size:63.73529434px;font-style:normal;font-variant:normal;font-weight:normal;font-stretch:normal;line-height:125%;letter-spacing:0px;word-spacing:0px;fill:#000000;fill-opacity:1;stroke:#000000;stroke-width:10;stroke-miterlimit:4;stroke-opacity:1;font-family:Myriad Pro;-inkscape-font-specification:Myriad Pro"
       id="text3002">
      <path
         d="m 592.85896,429.11278 12.26251,40.79643 38.90989,0 -49.52167,-158.941 -47.16351,0 -48.34258,158.941 37.02334,0 11.31924,-40.79643 z m -40.32479,-26.88319 9.4327,-33.72191 c 1.29201,-4.71133 2.53988,-9.79123 3.7436,-15.23971 1.20358,-5.44824 2.3925,-10.58709 3.56674,-15.41656 l 0.47164,0 c 1.18883,4.81474 2.46618,9.92411 3.83203,15.32814 1.36569,5.40425 2.76095,10.51363 4.18576,15.32813 l 9.90434,33.72191 z"
         style="font-size:235.82054138px;font-weight:bold;stroke:#000000;-inkscape-font-specification:Myriad Pro Bold"
         id="path3014"
         inkscape:connector-curvature="0" />
      <path
         d="m 665.08007,469.20176 c 4.35278,0.6141 9.91413,1.15452 16.68409,1.62124 6.76989,0.46672 14.80733,0.71237 24.11234,0.73693 15.63758,0.0147 29.69818,-1.66546 42.18186,-5.0406 12.48347,-3.37513 22.94786,-8.53363 31.3932,-15.47552 7.69341,-6.45548 13.94256,-15.00386 18.74749,-25.64516 4.80462,-10.64121 7.2807,-23.5522 7.42825,-38.73302 -0.0886,-14.00648 -2.50571,-25.96438 -7.25139,-35.87374 -4.74597,-9.90912 -11.2899,-17.91708 -19.6318,-24.02391 -7.42346,-5.65947 -16.39435,-9.90418 -26.91268,-12.73414 -10.51854,-2.82965 -23.32145,-4.24456 -38.40877,-4.24472 -9.0299,0.0149 -17.67653,0.33915 -25.93993,0.97275 -8.26347,0.63392 -15.73102,1.48876 -22.40266,2.56452 z m 35.84426,-130.40708 c 1.53276,-0.36834 3.65511,-0.69258 6.36707,-0.97275 2.71185,-0.2799 6.01329,-0.42729 9.90434,-0.44216 15.72108,0.0394 28.02288,4.32345 36.90543,12.85205 8.88235,8.52885 13.40218,21.06647 13.55951,37.6129 -0.21137,18.94407 -5.1537,32.99485 -14.82702,42.15238 -9.67352,9.15761 -22.81051,13.65779 -39.411,13.50055 -2.18629,0.0148 -4.41673,-0.0147 -6.69133,-0.0884 -2.27471,-0.0737 -4.21038,-0.28001 -5.807,-0.61902 z"
         style="font-size:235.82054138px;font-weight:bold;stroke:#000000;-inkscape-font-specification:Myriad Pro Bold"
         id="path3016"
         inkscape:connector-curvature="0" />
      <path
         d="m 908.51953,469.90921 53.53058,-158.941 -38.20244,0 -20.28031,67.91544 c -2.72181,9.08888 -5.29615,18.32506 -7.72302,27.70856 -2.42704,9.38362 -4.64765,18.85562 -6.66184,28.41601 l -0.70746,0 c -1.90135,-9.84043 -4.05318,-19.40085 -6.4555,-28.68131 -2.40246,-9.28032 -4.96697,-18.66389 -7.69355,-28.15071 l -19.33703,-67.20799 -39.38153,0 50.93659,158.941 z"
         style="font-size:235.82054138px;font-weight:bold;stroke:#000000;-inkscape-font-specification:Myriad Pro Bold"
         id="path3018"
         inkscape:connector-curvature="0" />
      <path
         d="m 979.43622,310.96821 0,158.941 35.84428,0 0,-158.941 z"
         style="font-size:235.82054138px;font-weight:bold;stroke:#000000;-inkscape-font-specification:Myriad Pro Bold"
         id="path3020"
         inkscape:connector-curvature="0" />
      <path
         d="m 1040.3149,462.36305 c 4.6623,2.57926 11.0195,4.849 19.0717,6.80923 8.0522,1.96023 16.7086,2.99193 25.9694,3.09511 21.7492,-0.38813 37.8535,-5.27151 48.3131,-14.65017 10.4594,-9.37864 15.6572,-20.92386 15.5935,-34.63569 0.044,-11.12759 -3.2869,-20.5308 -9.9928,-28.20968 -6.7062,-7.67872 -17.0527,-14.07526 -31.0395,-19.18964 -10.3072,-3.7042 -17.8141,-7.14321 -22.5206,-10.31702 -4.7065,-3.1736 -7.0254,-7.20215 -6.9566,-12.08564 -0.01,-4.14635 1.8963,-7.70326 5.7186,-10.67075 3.8222,-2.96724 9.6193,-4.5197 17.3915,-4.65739 7.6984,0.12295 14.3504,0.99744 19.9561,2.62347 5.6055,1.62629 9.9583,3.26718 13.0584,4.92269 l 8.0178,-28.76974 c -4.6821,-2.29415 -10.3515,-4.19052 -17.0084,-5.6891 -6.657,-1.49826 -14.5077,-2.27449 -23.5522,-2.32869 -18.8065,0.29002 -33.4862,4.83933 -44.0389,13.64794 -10.5529,8.8089 -15.9177,20.13795 -16.0946,33.98719 0.1769,11.48638 4.1858,21.05663 12.0267,28.71078 7.8409,7.65433 18.4527,13.80523 31.8354,18.45272 9.467,3.19343 16.2959,6.47522 20.4866,9.84539 4.1906,3.37028 6.2442,7.47743 6.1607,12.32146 -0.02,5.2568 -2.1617,9.42291 -6.426,12.49833 -4.2644,3.07548 -10.5332,4.64759 -18.8064,4.71635 -7.7771,-0.10315 -15.1563,-1.13485 -22.1374,-3.09511 -6.9812,-1.96021 -12.8865,-4.22995 -17.7158,-6.80923 z"
         style="font-size:235.82054138px;font-weight:bold;stroke:#000000;-inkscape-font-specification:Myriad Pro Bold"
         id="path3022"
         inkscape:connector-curvature="0" />
      <path
         d="m 1243.6059,308.1384 c -23.6506,0.49145 -42.3784,8.41098 -56.1835,23.75862 -13.8052,15.34791 -20.86,35.17621 -21.1646,59.48496 0.1818,23.29194 6.7748,42.50122 19.7792,57.6279 13.0043,15.12671 31.3293,22.95782 54.9749,23.49332 23.6799,-0.21617 42.5257,-7.62476 56.5373,-22.2258 14.0113,-14.601 21.1841,-35.09745 21.5183,-61.48941 -0.094,-22.65312 -6.5686,-41.60693 -19.4254,-56.8615 -12.8571,-15.25429 -31.5358,-23.18365 -56.0362,-23.78809 z m -0.7074,28.53392 c 12.4245,0.42264 21.8867,5.70887 28.3865,15.85873 6.4996,10.15008 9.7716,22.62875 9.8159,37.43603 -0.074,15.76544 -3.4047,28.62731 -9.9927,38.58563 -6.5883,9.9584 -15.9915,15.09726 -28.2097,15.41657 -12.1349,-0.26035 -21.5872,-5.22234 -28.3571,-14.88598 -6.77,-9.66356 -10.209,-22.46647 -10.317,-38.40877 0.079,-15.76529 3.4586,-28.62716 10.1402,-38.58565 6.6814,-9.95824 16.1927,-15.09709 28.5339,-15.41656 z"
         style="font-size:235.82054138px;font-weight:bold;stroke:#000000;-inkscape-font-specification:Myriad Pro Bold"
         id="path3024"
         inkscape:connector-curvature="0" />
      <path
         d="m 1342.6035,469.90921 35.6085,0 0,-62.49164 10.6118,0 c 7.3102,-0.0884 12.9699,1.68026 16.9788,5.30589 4.0088,3.62575 7.0745,10.34654 9.1969,20.1624 2.2647,9.81102 4.338,17.83863 6.2197,24.08286 1.8815,6.24426 3.4242,10.55775 4.6279,12.94049 l 36.7875,0 c -1.5624,-3.42427 -3.4489,-9.42778 -5.6596,-18.01057 -2.2109,-8.58274 -4.5691,-17.59293 -7.0745,-27.03057 -1.9456,-7.34468 -4.5986,-13.52506 -7.9588,-18.54116 -3.3605,-5.01596 -7.7821,-8.6613 -13.2648,-10.93603 l 0,-0.70745 c 7.153,-2.53497 13.5398,-7.13341 19.1602,-13.79533 5.6202,-6.66175 8.5876,-15.03326 8.9021,-25.11456 -0.015,-7.32005 -1.2824,-13.78538 -3.8026,-19.396 -2.5204,-5.61035 -6.205,-10.30704 -11.0539,-14.09009 -5.6204,-4.44108 -12.6556,-7.64426 -21.1057,-9.60956 -8.4502,-1.96499 -18.551,-2.92791 -30.3025,-2.88877 -9.7325,0.0198 -18.6837,0.33424 -26.8537,0.94327 -8.1702,0.60935 -15.1759,1.39541 -21.0173,2.35818 z m 35.6085,-132.0578 c 1.2674,-0.35851 3.2129,-0.64346 5.8365,-0.85485 2.6234,-0.21112 6.1017,-0.3192 10.4349,-0.32424 8.3223,0.0149 14.7876,1.87194 19.396,5.57119 4.6082,3.69952 6.9467,9.15279 7.0155,16.35984 -0.069,7.04024 -2.5842,12.59177 -7.5461,16.6546 -4.9621,4.06303 -11.958,6.13626 -20.9878,6.2197 l -14.149,0 z"
         style="font-size:235.82054138px;font-weight:bold;stroke:#000000;-inkscape-font-specification:Myriad Pro Bold"
         id="path3026"
         inkscape:connector-curvature="0" />
      <path
         d="m 1555.2538,469.90921 0,-66.26472 52.3514,-92.67628 -40.3247,0 -16.0356,38.20244 c -2.3436,5.60078 -4.4954,10.84772 -6.4555,15.74082 -1.9603,4.89331 -3.8174,9.78652 -5.5712,14.67964 l -0.4717,0 c -1.8522,-5.08472 -3.7485,-10.00741 -5.6891,-14.76808 -1.9406,-4.76046 -4.1318,-9.97791 -6.5734,-15.65238 l -16.0356,-38.20244 -41.268,0 50.2291,93.85537 0,65.08563 z"
         style="font-size:235.82054138px;font-weight:bold;stroke:#000000;-inkscape-font-specification:Myriad Pro Bold"
         id="path3028"
         inkscape:connector-curvature="0" />
    </g>
    <g
       transform="scale(0.84273609,1.1866111)"
       style="font-size:137.53125px;font-style:normal;font-variant:normal;font-weight:bold;font-stretch:normal;text-align:start;line-height:120.00000477%;letter-spacing:0px;word-spacing:0px;writing-mode:lr-tb;text-anchor:start;fill:#ffffff;fill-opacity:1;stroke:none;font-family:Myriad Pro;-inkscape-font-specification:Myriad Pro Bold"
       id="text3774" />
    <g
       transform="scale(0.66369759,1.5067103)"
       style="font-size:114.5689621px;font-style:normal;font-variant:normal;font-weight:bold;font-stretch:normal;text-align:start;line-height:120.00000477%;letter-spacing:0px;word-spacing:0px;writing-mode:lr-tb;text-anchor:start;fill:#ffffff;fill-opacity:1;stroke:#ffffff;stroke-width:1.836797;stroke-miterlimit:4;stroke-opacity:1;display:inline;font-family:Myriad Pro;-inkscape-font-specification:Myriad Pro Bold"
       id="text3774-1" />
  </g>
</svg>
